<svg xmlns="http://www.w3.org/2000/svg" width="1440" height="900"><path d="M1035,210L1124,170L1067,-99Z" fill="#c8caca" stroke="#c8caca" stroke-width="1.51"/><path d="M1067,-99L955,-178L1035,210Z" fill="#c1bcc5" stroke="#c1bcc5" stroke-width="1.51"/><path d="M955,-178L615,152L1035,210Z" fill="#d4cbd8" stroke="#d4cbd8" stroke-width="1.51"/><path d="M1091,-443L918,-294L955,-178Z" fill="#ab8fab" stroke="#ab8fab" stroke-width="1.51"/><path d="M572,-56L615,152L955,-178Z" fill="#d3c0da" stroke="#d3c0da" stroke-width="1.51"/><path d="M918,-294L572,-56L955,-178Z" fill="#bfa7c5" stroke="#bfa7c5" stroke-width="1.51"/><path d="M1124,170L1508,95L1067,-99Z" fill="#b6bfb7" stroke="#b6bfb7" stroke-width="1.51"/><path d="M1067,-99L1091,-443L955,-178Z" fill="#ac98ad" stroke="#ac98ad" stroke-width="1.51"/><path d="M1542,170L1508,95L1124,170Z" fill="#a8bda9" stroke="#a8bda9" stroke-width="1.51"/><path d="M1367,-439L1091,-443L1067,-99Z" fill="#988697" stroke="#988697" stroke-width="1.51"/><path d="M918,-294L709,-464L572,-56Z" fill="#bb98c0" stroke="#bb98c0" stroke-width="1.51"/><path d="M1440,567L1542,170L1124,170Z" fill="#b7d0b4" stroke="#b7d0b4" stroke-width="1.51"/><path d="M1091,-443L709,-464L918,-294Z" fill="#a284a3" stroke="#a284a3" stroke-width="1.51"/><path d="M1091,-443L1703,-504L709,-464Z" fill="#837582" stroke="#837582" stroke-width="1.51"/><path d="M1508,95L1367,-439L1067,-99Z" fill="#979b9a" stroke="#979b9a" stroke-width="1.51"/><path d="M1703,-504L1367,-439L1508,95Z" fill="#737375" stroke="#737375" stroke-width="1.51"/><path d="M1035,210L1440,567L1124,170Z" fill="#cddfc9" stroke="#cddfc9" stroke-width="1.51"/><path d="M944,742L1440,567L1035,210Z" fill="#d3eccf" stroke="#d3eccf" stroke-width="1.51"/><path d="M550,585L944,742L1035,210Z" fill="#ebf5e8" stroke="#ebf5e8" stroke-width="1.51"/><path d="M615,152L550,585L1035,210Z" fill="#f1eaf1" stroke="#f1eaf1" stroke-width="1.51"/><path d="M572,-56L315,119L615,152Z" fill="#d6bfdd" stroke="#d6bfdd" stroke-width="1.51"/><path d="M171,145L315,119L282,-412Z" fill="#b999c6" stroke="#b999c6" stroke-width="1.51"/><path d="M315,119L550,585L615,152Z" fill="#e9d9ea" stroke="#e9d9ea" stroke-width="1.51"/><path d="M944,742L1355,724L1440,567Z" fill="#b9e2b2" stroke="#b9e2b2" stroke-width="1.51"/><path d="M1542,170L1848,-2L1508,95Z" fill="#869f8d" stroke="#869f8d" stroke-width="1.51"/><path d="M1440,567L1776,269L1542,170Z" fill="#9cbe9d" stroke="#9cbe9d" stroke-width="1.51"/><path d="M1736,587L1776,269L1440,567Z" fill="#97c099" stroke="#97c099" stroke-width="1.51"/><path d="M944,742L1229,814L1355,724Z" fill="#b6e2af" stroke="#b6e2af" stroke-width="1.51"/><path d="M944,742L985,1174L1229,814Z" fill="#a9daa4" stroke="#a9daa4" stroke-width="1.51"/><path d="M550,585L735,794L944,742Z" fill="#def0da" stroke="#def0da" stroke-width="1.51"/><path d="M1776,269L1848,-2L1542,170Z" fill="#819c87" stroke="#819c87" stroke-width="1.51"/><path d="M315,119L70,419L550,585Z" fill="#e1d0e5" stroke="#e1d0e5" stroke-width="1.51"/><path d="M282,-412L315,119L572,-56Z" fill="#bb9bc7" stroke="#bb9bc7" stroke-width="1.51"/><path d="M709,-464L282,-412L572,-56Z" fill="#b284b7" stroke="#b284b7" stroke-width="1.51"/><path d="M1848,-2L1703,-504L1508,95Z" fill="#6c7b75" stroke="#6c7b75" stroke-width="1.51"/><path d="M1367,-439L1703,-504L1091,-443Z" fill="#6c686b" stroke="#6c686b" stroke-width="1.51"/><path d="M1776,269L2061,383L1848,-2Z" fill="#7b9180" stroke="#7b9180" stroke-width="1.51"/><path d="M1622,939L1736,587L1440,567Z" fill="#87c087" stroke="#87c087" stroke-width="1.51"/><path d="M1622,939L1440,567L1355,724Z" fill="#8fca8d" stroke="#8fca8d" stroke-width="1.51"/><path d="M171,145L70,419L315,119Z" fill="#cfb6d8" stroke="#cfb6d8" stroke-width="1.51"/><path d="M337,957L627,1028L735,794Z" fill="#b9d4b7" stroke="#b9d4b7" stroke-width="1.51"/><path d="M-157,14L70,419L171,145Z" fill="#bfa1ca" stroke="#bfa1ca" stroke-width="1.51"/><path d="M337,957L735,794L550,585Z" fill="#d1e0cd" stroke="#d1e0cd" stroke-width="1.51"/><path d="M735,794L985,1174L944,742Z" fill="#b8deb3" stroke="#b8deb3" stroke-width="1.51"/><path d="M1229,814L1622,939L1355,724Z" fill="#8ecc8b" stroke="#8ecc8b" stroke-width="1.51"/><path d="M1372,1260L1622,939L1229,814Z" fill="#6bb76e" stroke="#6bb76e" stroke-width="1.51"/><path d="M2027,508L2061,383L1776,269Z" fill="#7e9982" stroke="#7e9982" stroke-width="1.51"/><path d="M1622,939L1816,788L1736,587Z" fill="#70ae73" stroke="#70ae73" stroke-width="1.51"/><path d="M2027,508L1776,269L1736,587Z" fill="#87ab8b" stroke="#87ab8b" stroke-width="1.51"/><path d="M1848,-2L2135,-52L1703,-504Z" fill="#595d61" stroke="#595d61" stroke-width="1.51"/><path d="M1816,788L2027,508L1736,587Z" fill="#78a67b" stroke="#78a67b" stroke-width="1.51"/><path d="M2061,383L2135,-52L1848,-2Z" fill="#6b7973" stroke="#6b7973" stroke-width="1.51"/><path d="M627,1028L985,1174L735,794Z" fill="#acd5aa" stroke="#acd5aa" stroke-width="1.51"/><path d="M627,1028L607,1098L985,1174Z" fill="#9fc79f" stroke="#9fc79f" stroke-width="1.51"/><path d="M337,957L607,1098L627,1028Z" fill="#a6c6a4" stroke="#a6c6a4" stroke-width="1.51"/><path d="M70,419L102,709L550,585Z" fill="#d6cfd9" stroke="#d6cfd9" stroke-width="1.51"/><path d="M102,709L337,957L550,585Z" fill="#c9d0c9" stroke="#c9d0c9" stroke-width="1.51"/><path d="M260,1205L1098,1215L985,1174Z" fill="#8eb891" stroke="#8eb891" stroke-width="1.51"/><path d="M985,1174L1098,1215L1229,814Z" fill="#88c487" stroke="#88c487" stroke-width="1.51"/><path d="M282,-412L-157,14L171,145Z" fill="#a984b9" stroke="#a984b9" stroke-width="1.51"/><path d="M70,419L-195,615L102,709Z" fill="#c2b4c7" stroke="#c2b4c7" stroke-width="1.51"/><path d="M1098,1215L1372,1260L1229,814Z" fill="#76ba77" stroke="#76ba77" stroke-width="1.51"/><path d="M1622,939L2087,1073L1816,788Z" fill="#4b9254" stroke="#4b9254" stroke-width="1.51"/><path d="M282,-412L-125,-492L-157,14Z" fill="#8d569c" stroke="#8d569c" stroke-width="1.51"/><path d="M709,-464L-125,-492L282,-412Z" fill="#8d6097" stroke="#8d6097" stroke-width="1.51"/><path d="M1703,-504L-125,-492L709,-464Z" fill="#9c7c9e" stroke="#9c7c9e" stroke-width="1.51"/><path d="M102,709L68,939L337,957Z" fill="#aeb9af" stroke="#aeb9af" stroke-width="1.51"/><path d="M337,957L260,1205L607,1098Z" fill="#98b399" stroke="#98b399" stroke-width="1.51"/><path d="M-195,615L68,939L102,709Z" fill="#b0aeb3" stroke="#b0aeb3" stroke-width="1.51"/><path d="M-308,415L-195,615L70,419Z" fill="#c0a4c6" stroke="#c0a4c6" stroke-width="1.51"/><path d="M-341,-384L-319,100L-157,14Z" fill="#8d579c" stroke="#8d579c" stroke-width="1.51"/><path d="M-157,14L-308,415L70,419Z" fill="#bc98c4" stroke="#bc98c4" stroke-width="1.51"/><path d="M2241,1224L2254,-488L2135,-52Z" fill="#758779" stroke="#758779" stroke-width="1.51"/><path d="M2135,-52L2254,-488L1703,-504Z" fill="#463c4a" stroke="#463c4a" stroke-width="1.51"/><path d="M-319,100L-308,415L-157,14Z" fill="#aa7bb2" stroke="#aa7bb2" stroke-width="1.51"/><path d="M607,1098L260,1205L985,1174Z" fill="#95b997" stroke="#95b997" stroke-width="1.51"/><path d="M1098,1215L-172,1349L1372,1260Z" fill="#87ae8a" stroke="#87ae8a" stroke-width="1.51"/><path d="M68,939L260,1205L337,957Z" fill="#94ab98" stroke="#94ab98" stroke-width="1.51"/><path d="M-172,1349L260,1205L68,939Z" fill="#75887d" stroke="#75887d" stroke-width="1.51"/><path d="M-125,-492L-341,-384L-157,14Z" fill="#803e8d" stroke="#803e8d" stroke-width="1.51"/><path d="M-547,739L-195,615L-308,415Z" fill="#a98aaa" stroke="#a98aaa" stroke-width="1.51"/><path d="M2061,383L2241,1224L2135,-52Z" fill="#78997b" stroke="#78997b" stroke-width="1.51"/><path d="M2027,508L2241,1224L2061,383Z" fill="#669369" stroke="#669369" stroke-width="1.51"/><path d="M1816,788L2087,1073L2027,508Z" fill="#5d9160" stroke="#5d9160" stroke-width="1.51"/><path d="M1950,1256L2087,1073L1622,939Z" fill="#2a7a3c" stroke="#2a7a3c" stroke-width="1.51"/><path d="M1372,1260L1950,1256L1622,939Z" fill="#348a45" stroke="#348a45" stroke-width="1.51"/><path d="M-195,615L-311,1073L68,939Z" fill="#979498" stroke="#979498" stroke-width="1.51"/><path d="M-547,739L-311,1073L-195,615Z" fill="#928291" stroke="#928291" stroke-width="1.51"/><path d="M-547,739L-308,415L-319,100Z" fill="#ac85b0" stroke="#ac85b0" stroke-width="1.51"/><path d="M2087,1073L2241,1224L2027,508Z" fill="#41814a" stroke="#41814a" stroke-width="1.51"/><path d="M1950,1256L2241,1224L2087,1073Z" fill="#13622c" stroke="#13622c" stroke-width="1.51"/><path d="M-341,-384L-547,739L-319,100Z" fill="#996aa2" stroke="#996aa2" stroke-width="1.51"/><path d="M260,1205L-172,1349L1098,1215Z" fill="#819b86" stroke="#819b86" stroke-width="1.51"/><path d="M1372,1260L-172,1349L1950,1256Z" fill="#71a574" stroke="#71a574" stroke-width="1.51"/><path d="M-311,1073L-172,1349L68,939Z" fill="#707976" stroke="#707976" stroke-width="1.51"/><path d="M-513,1254L-172,1349L-311,1073Z" fill="#57555b" stroke="#57555b" stroke-width="1.51"/><path d="M-547,739L-513,1254L-311,1073Z" fill="#656564" stroke="#656564" stroke-width="1.51"/></svg>